<?xml version="1.0" standalone="no"?>
<!DOCTYPE svg PUBLIC "-//W3C//DTD SVG 20010904//EN"
 "http://www.w3.org/TR/2001/REC-SVG-20010904/DTD/svg10.dtd">
<svg version="1.0" xmlns="http://www.w3.org/2000/svg"
 width="300.000000pt" height="300.000000pt" viewBox="0 0 300.000000 300.000000"
 preserveAspectRatio="xMidYMid meet">
<metadata>
Created by potrace 1.10, written by Peter Selinger 2001-2011
</metadata>
<g transform="translate(0.000000,300.000000) scale(0.100000,-0.100000)"
fill="#000000" stroke="none">
<path d="M1508 1539 c-18 -10 -23 -44 -12 -73 4 -10 18 -16 40 -16 30 0 34 3
34 25 0 19 -5 25 -22 24 -13 0 -17 -3 -10 -6 16 -6 15 -33 -2 -33 -22 0 -38
27 -31 51 6 17 12 20 39 15 29 -5 30 -5 12 9 -23 17 -25 18 -48 4z"/>
<path d="M1703 1543 c-21 -8 -14 -25 7 -18 22 7 26 -5 8 -23 -9 -9 -8 -12 5
-12 19 0 23 -15 7 -25 -6 -4 -18 -1 -27 7 -14 11 -15 11 -11 -2 2 -8 16 -15
29 -15 21 0 24 5 25 40 2 47 -12 61 -43 48z"/>
<path d="M1250 1495 c0 -25 5 -45 10 -45 6 0 10 20 10 45 0 25 -4 45 -10 45
-5 0 -10 -20 -10 -45z"/>
<path d="M1290 1496 c0 -25 4 -46 8 -46 5 0 7 15 5 33 l-3 32 15 -32 c8 -18
19 -33 24 -33 5 0 13 15 17 33 l8 32 7 -35 c6 -33 6 -33 8 13 1 51 -15 64 -25
20 -11 -46 -17 -49 -29 -13 -17 52 -35 50 -35 -4z"/>
<path d="M1421 1518 c-5 -13 -12 -34 -16 -48 -6 -20 -5 -23 6 -12 16 14 49 16
49 2 0 -5 4 -10 9 -10 6 0 3 20 -6 45 -17 50 -29 57 -42 23z"/>
<path d="M1590 1495 c0 -44 0 -45 33 -44 30 2 30 2 5 6 -32 5 -38 33 -8 33 11
0 20 4 20 9 0 5 -9 7 -20 4 -14 -4 -20 0 -20 10 0 9 11 17 28 20 25 4 25 4 -5
6 -33 1 -33 0 -33 -44z"/>
</g>
</svg>
