<?xml version="1.0" standalone="no"?>
<!DOCTYPE svg PUBLIC "-//W3C//DTD SVG 20010904//EN"
 "http://www.w3.org/TR/2001/REC-SVG-20010904/DTD/svg10.dtd">
<svg version="1.0" xmlns="http://www.w3.org/2000/svg"
 width="300.000000pt" height="300.000000pt" viewBox="0 0 300.000000 300.000000"
 preserveAspectRatio="xMidYMid meet">
<metadata>
Created by potrace 1.10, written by Peter Selinger 2001-2011
</metadata>
<g transform="translate(0.000000,300.000000) scale(0.100000,-0.100000)"
fill="#000000" stroke="none">
<path d="M1506 1534 c-19 -18 -21 -55 -4 -72 7 -7 25 -12 40 -12 23 0 28 4 28
25 0 19 -5 25 -22 24 -19 0 -20 -2 -6 -7 12 -5 14 -11 9 -21 -15 -24 -41 -5
-41 30 0 30 1 31 33 25 30 -5 31 -5 13 9 -25 19 -31 19 -50 -1z"/>
<path d="M1703 1543 c-24 -9 -13 -23 12 -17 14 3 25 2 25 -3 0 -5 -11 -20 -25
-33 -33 -31 -32 -40 8 -39 28 1 29 2 9 8 l-24 6 21 19 c25 23 27 51 5 60 -9 3
-16 6 -17 5 -1 0 -8 -3 -14 -6z"/>
<path d="M1250 1495 c0 -25 5 -45 10 -45 6 0 10 20 10 45 0 25 -4 45 -10 45
-5 0 -10 -20 -10 -45z"/>
<path d="M1290 1495 c0 -48 19 -64 21 -17 l1 27 10 -27 c5 -16 13 -28 17 -28
4 0 12 12 18 28 l11 27 1 -27 c2 -47 16 -31 16 17 0 52 -20 62 -30 15 -4 -16
-10 -30 -15 -30 -5 0 -11 14 -15 30 -11 48 -35 38 -35 -15z"/>
<path d="M1421 1518 c-19 -52 -22 -68 -12 -68 6 0 11 5 11 10 0 14 38 12 43
-2 2 -7 7 -10 11 -7 9 8 -18 82 -32 87 -7 2 -16 -7 -21 -20z"/>
<path d="M1590 1495 c0 -44 0 -45 33 -44 30 2 30 2 5 6 -36 6 -37 33 -1 33 14
0 23 3 19 7 -4 4 -15 8 -23 8 -29 0 -25 23 4 28 27 4 27 4 -4 6 -33 1 -33 0
-33 -44z"/>
</g>
</svg>
