<?xml version="1.0" standalone="no"?>
<!DOCTYPE svg PUBLIC "-//W3C//DTD SVG 20010904//EN"
 "http://www.w3.org/TR/2001/REC-SVG-20010904/DTD/svg10.dtd">
<svg version="1.0" xmlns="http://www.w3.org/2000/svg"
 width="300.000000pt" height="300.000000pt" viewBox="0 0 300.000000 300.000000"
 preserveAspectRatio="xMidYMid meet">
<metadata>
Created by potrace 1.10, written by Peter Selinger 2001-2011
</metadata>
<g transform="translate(0.000000,300.000000) scale(0.100000,-0.100000)"
fill="#000000" stroke="none">
<path d="M1512 1534 c-43 -30 -21 -86 32 -82 20 2 26 8 26 25 0 18 -5 23 -22
22 -18 -1 -19 -2 -5 -6 23 -6 16 -28 -9 -28 -14 0 -19 7 -19 30 0 27 3 30 28
28 24 -2 27 0 17 13 -16 18 -20 18 -48 -2z"/>
<path d="M1618 1543 c-26 -4 -28 -8 -28 -49 0 -43 1 -44 33 -43 23 1 26 3 10
6 -29 5 -30 33 -2 33 11 0 18 4 14 10 -3 5 -12 7 -20 3 -9 -3 -15 1 -15 11 0
9 8 16 20 16 11 0 20 5 20 10 0 6 -1 9 -2 9 -2 -1 -15 -4 -30 -6z"/>
<path d="M1255 1495 c0 -25 3 -45 8 -45 4 0 7 20 7 45 0 25 -3 45 -7 45 -5 0
-8 -20 -8 -45z"/>
<path d="M1290 1495 c0 -48 19 -64 21 -17 l1 27 10 -27 c5 -16 13 -28 18 -28
5 0 13 12 18 28 l10 27 1 -27 c2 -47 21 -31 21 17 0 53 -24 63 -35 15 -4 -16
-10 -30 -15 -30 -5 0 -11 14 -15 30 -11 48 -35 38 -35 -15z"/>
<path d="M1417 1499 c-9 -24 -14 -45 -11 -48 4 -3 9 0 11 7 3 6 13 12 23 12
10 0 20 -6 23 -12 2 -7 7 -10 11 -7 8 8 -18 82 -31 86 -5 2 -17 -15 -26 -38z"/>
<path d="M1694 1528 c-5 -8 -2 -9 9 -5 14 5 17 0 17 -28 0 -24 -5 -35 -17 -38
-10 -3 0 -5 22 -5 22 0 32 2 23 5 -13 3 -18 15 -18 44 0 39 -20 54 -36 27z"/>
</g>
</svg>
